# xmcd CD database file
#
# Track frame offsets:
#	150
#	18665
#	35107
#
# Disc length: 746 seconds
#
# Revision: 0
# Processed by: cddbd v1.5.1PL0 Copyright (c) Steve Scherf et al.
# Submitted via: CDex 1.51
#
DISCID=2202e803
DTITLE=森川美穂 - HER-Best II plus III
DYEAR=1900
DGENRE=JPop
TTITLE0=ブルーな嵐
TTITLE1=サーフサイドブリーズ
TTITLE2=Real Mind
EXTD=
EXTT0=
EXTT1=
EXTT2=
PLAYORDER=
